HIERARCHY
ROOT SpineBase
{
  OFFSET 0.000000 0.000000 0.000000
  CHANNELS 6 Xposition Yposition Zposition Zrotation Xrotation Yrotation
  JOINT SpineMid
  {
    OFFSET -0.000000 33.364255 0.000000
    CHANNELS 3 Zrotation Xrotation Yrotation
    JOINT SpineShoulder
    {
      OFFSET -0.161198 25.048588 -0.885076
      CHANNELS 3 Zrotation Xrotation Yrotation
      JOINT Neck
      {
        OFFSET -0.109672 8.363335 -0.659621
        CHANNELS 3 Zrotation Xrotation Yrotation
        JOINT Head
        {
          OFFSET -2.366332 11.225301 3.434057
          CHANNELS 3 Zrotation Xrotation Yrotation
          End Site
          {
            OFFSET 0 0 0
          }
        }
      }
      JOINT ShoulderLeft
      {
        OFFSET -8.631913 -7.261893 -10.576167
        CHANNELS 3 Zrotation Xrotation Yrotation
        JOINT ElbowLeft
        {
          OFFSET -6.376137 -24.002417 -0.060114
          CHANNELS 3 Zrotation Xrotation Yrotation
          JOINT WristLeft
          {
            OFFSET -1.814761 -20.364597 5.832483
            CHANNELS 3 Zrotation Xrotation Yrotation
            JOINT HandLeft
            {
              OFFSET -0.119066 -7.023772 2.483930
              CHANNELS 3 Zrotation Xrotation Yrotation
              JOINT HandTipLeft
              {
                OFFSET -0.115467 -4.527730 1.168116
                CHANNELS 3 Zrotation Xrotation Yrotation
                End Site
                {
                  OFFSET 0 0 0
                }
              }
              JOINT ThumbLeft
              {
                OFFSET 2.647265 1.559888 -4.174029
                CHANNELS 3 Zrotation Xrotation Yrotation
                End Site
                {
                  OFFSET 0 0 0
                }
              }
            }
          }
        }
      }
      JOINT ShoulderRight
      {
        OFFSET 8.006657 -4.603995 -3.657140
        CHANNELS 3 Zrotation Xrotation Yrotation
        JOINT ElbowRight
        {
          OFFSET -19.917511 -13.501731 -9.349888
          CHANNELS 3 Zrotation Xrotation Yrotation
          JOINT WristRight
          {
            OFFSET -6.173190 -21.531267 2.939713
            CHANNELS 3 Zrotation Xrotation Yrotation
            JOINT HandRight
            {
              OFFSET 0.640437 -5.575170 2.412140
              CHANNELS 3 Zrotation Xrotation Yrotation
              JOINT HandTipRight
              {
                OFFSET -2.142516 -7.623397 2.321732
                CHANNELS 3 Zrotation Xrotation Yrotation
                End Site
                {
                  OFFSET 0 0 0
                }
              }
              JOINT ThumbRight
              {
                OFFSET 3.825405 0.776027 -0.339395
                CHANNELS 3 Zrotation Xrotation Yrotation
                End Site
                {
                  OFFSET 0 0 0
                }
              }
            }
          }
        }
      }
    }
  }
  JOINT HipLeft
  {
    OFFSET -4.747934 1.147063 -4.527471
    CHANNELS 3 Zrotation Xrotation Yrotation
    JOINT KneeLeft
    {
      OFFSET 3.122072 -27.118563 -5.563928
      CHANNELS 3 Zrotation Xrotation Yrotation
      JOINT AnkleLeft
      {
        OFFSET -0.579095 -29.491792 -2.813981
        CHANNELS 3 Zrotation Xrotation Yrotation
        JOINT FootLeft
        {
          OFFSET 2.840825 -1.662573 -10.787183
          CHANNELS 3 Zrotation Xrotation Yrotation
          End Site
          {
            OFFSET 0 0 0
          }
        }
      }
    }
  }
  JOINT HipRight
  {
    OFFSET 3.558234 2.892391 -2.328771
    CHANNELS 3 Zrotation Xrotation Yrotation
    JOINT KneeRight
    {
      OFFSET 8.622380 -30.798350 0.658753
      CHANNELS 3 Zrotation Xrotation Yrotation
      JOINT AnkleRight
      {
        OFFSET -5.678415 -27.599102 -5.956742
        CHANNELS 3 Zrotation Xrotation Yrotation
        JOINT FootRight
        {
          OFFSET -2.276184 -3.916861 -6.165617
          CHANNELS 3 Zrotation Xrotation Yrotation
          End Site
          {
            OFFSET 0 0 0
          }
        }
      }
    }
  }
}
MOTION
Frames: 7
Frame Time: 0.033333
35.960565 78.805013 252.372895 5.516599 1.021916 67.841986 0.066589 1.144465 -67.756649 -0.324680 1.150196 0.148853 -18.287849 -14.822317 -0.972510 0.000000 0.000000 0.000000 53.870861 -79.100052 75.649845 15.035183 59.118171 -28.777453 0.258086 5.359656 -1.679809 5.782063 19.650929 0.068518 0.000000 0.000000 0.000000 0.000000 0.000000 0.000000 -19.649605 14.594313 -10.257445 2.821701 -2.752436 5.651953 -2.196456 -3.392937 -0.926718 7.952407 -4.817571 2.253047 0.000000 0.000000 0.000000 0.000000 0.000000 0.000000 14.090281 15.849864 -67.761765 7.033217 -20.783558 -1.555696 -5.269901 -6.899331 -1.142852 0.000000 0.000000 0.000000 -22.430044 8.597308 -70.423767 31.506937 -3.974285 0.890520 2.185612 20.836140 -43.060011 0.000000 0.000000 0.000000
36.678874 79.502011 252.708892 6.421367 0.818852 65.348020 0.036763 1.243958 -65.236811 -0.425821 1.115543 0.168779 -17.581499 -14.680948 -1.242405 0.000000 0.000000 0.000000 16.889782 -67.947813 34.825004 8.141456 54.159957 -21.282422 0.721072 -5.244858 -0.869263 0.634124 16.184212 0.054055 0.000000 0.000000 0.000000 0.000000 0.000000 0.000000 -20.541825 18.062991 -13.311192 1.346221 -2.508967 7.656296 -9.086647 5.412172 -1.396481 11.915685 -14.790112 2.348440 0.000000 0.000000 0.000000 0.000000 0.000000 0.000000 9.438376 17.030206 -64.824113 7.812993 -17.189796 -1.641163 -5.912416 -10.973267 -1.084992 0.000000 0.000000 0.000000 -20.608950 10.034799 -67.005779 31.753757 -6.849708 1.457534 -0.060334 16.257676 -36.910892 0.000000 0.000000 0.000000
37.514504 80.299846 253.135193 7.313196 0.616056 56.988624 -0.429159 1.401311 -56.840700 -0.642506 0.824959 0.180573 -15.651060 -13.651672 -1.360114 0.000000 0.000000 0.000000 6.830556 -53.867877 20.997639 2.371011 47.607271 -14.940794 3.390408 -12.929349 0.859603 -5.684124 13.560332 -0.350539 0.000000 0.000000 0.000000 0.000000 0.000000 0.000000 -25.521071 26.302102 -16.451988 6.492628 -6.410981 12.471796 -13.771107 12.036996 -0.757304 16.395432 -19.525931 3.189096 0.000000 0.000000 0.000000 0.000000 0.000000 0.000000 0.142034 16.737913 -55.227599 8.693617 -10.662386 -1.718405 -7.099946 -17.147195 -4.662937 0.000000 0.000000 0.000000 -18.107354 10.629082 -57.539466 31.644989 -11.240850 2.213424 0.852964 8.815163 -36.413240 0.000000 0.000000 0.000000
38.288247 80.374610 253.514364 7.670621 0.345753 20.067089 -1.451134 0.610528 -19.873976 -0.939370 0.316114 0.180788 -12.900132 -12.074244 -1.437189 0.000000 0.000000 0.000000 1.524839 -33.686354 10.751416 -2.530749 35.517222 -8.559158 13.208215 -21.962974 7.021002 -17.834440 13.920247 -1.439678 0.000000 0.000000 0.000000 0.000000 0.000000 0.000000 -30.053614 36.240740 -19.638734 12.454575 -11.872119 18.924523 -17.962642 19.435359 0.970072 18.460545 -23.792414 2.415820 0.000000 0.000000 0.000000 0.000000 0.000000 0.000000 -14.364530 5.933209 -17.695938 9.471828 -1.888158 -1.757350 -12.909583 -35.345481 -5.346650 0.000000 0.000000 0.000000 -18.296139 4.465245 -20.011574 30.654063 -16.909952 3.027643 4.389191 -5.873184 -40.796729 0.000000 0.000000 0.000000
38.635882 80.045819 253.816810 7.522928 0.350627 -27.206899 -0.980142 -0.870994 27.415232 -0.847608 -0.150991 0.210561 -12.073191 -11.084341 -1.471957 0.000000 0.000000 0.000000 -0.420848 -13.928191 3.978057 -5.030408 20.823177 -3.931187 19.893938 -27.107212 12.416048 -20.210937 13.014176 -2.151028 0.000000 0.000000 0.000000 0.000000 0.000000 0.000000 -31.878262 45.249557 -24.322952 18.067038 -18.078779 26.649390 -22.042031 28.688476 4.889542 20.136244 -28.003096 1.301826 0.000000 0.000000 0.000000 0.000000 0.000000 0.000000 -12.010792 -11.166464 27.473830 9.583232 3.651355 -1.712198 -22.991880 -54.345376 -11.492313 0.000000 0.000000 0.000000 -17.085149 -5.927697 26.640510 29.535376 -20.625155 3.440046 6.951842 -15.788778 -46.321005 0.000000 0.000000 0.000000
38.485109 79.508896 254.016255 6.842957 -0.327692 -52.037837 -0.287941 -1.026598 52.284099 -0.473172 -0.476925 0.231742 -11.689644 -9.777719 -1.283950 0.000000 0.000000 0.000000 -0.468291 1.552466 -0.573211 -6.273059 9.738759 -1.117289 22.028903 -37.761830 15.869935 -20.416152 22.227960 -0.361446 0.000000 0.000000 0.000000 0.000000 0.000000 0.000000 -33.021130 55.488059 -29.806806 25.658270 -23.946461 36.173002 -27.719988 38.110177 10.757396 24.429648 -31.325621 2.532838 0.000000 0.000000 0.000000 0.000000 0.000000 0.000000 -3.071752 -16.606013 52.877049 9.720797 7.787040 -1.661732 -70.119919 -66.287347 -66.335139 0.000000 0.000000 0.000000 -15.434411 -8.784030 52.099286 28.367482 -22.843566 3.343725 8.623144 -43.762468 -48.156136 0.000000 0.000000 0.000000
38.389385 79.046088 253.869357 6.461330 -1.106382 -61.681355 0.027704 -1.013595 61.967821 -0.324786 -0.601419 0.230451 -12.107898 -8.707767 -0.930256 0.000000 0.000000 0.000000 -0.866828 8.132547 -2.279155 -6.333121 4.004105 -0.149421 22.094960 -38.121995 15.701955 -17.775170 22.189190 -0.682686 0.000000 0.000000 0.000000 0.000000 0.000000 0.000000 -36.360302 67.152136 -33.963750 39.807497 -28.141609 49.623306 -33.460686 47.869276 19.902445 26.106522 -35.933811 2.451187 0.000000 0.000000 0.000000 0.000000 0.000000 0.000000 2.240450 -17.951475 63.257924 10.482702 11.057174 -1.815620 -100.814351 -61.158466 -101.399895 0.000000 0.000000 0.000000 -16.167245 -9.232098 62.284731 28.257781 -24.471186 3.362651 4.416937 -67.041897 -62.113443 0.000000 0.000000 0.000000
